<svg xmlns="http://www.w3.org/2000/svg" width="772.85" height="157.07" viewBox="0 0 772.85 157.07"><defs><clipPath id="a" transform="translate(-94 -217.95)"><path d="M210.63 220a63.3 63.3 0 0 0-13.12 1.43 69 69 0 0 1 12.55 6.56c4 2.51 8.47 5.56 6.95 9.25-5 8.75-17.19 4.72-24.11 1.52-7.76-3.59-16.5-9.13-25.42-7.6s-14 12.18-16.68 20c9.79-2.8 24.28-4.58 30 6.14 4.28 8 3.9 23.31-5.74 27.33-10.63 4.43-18.44-5.25-26.28-9.78C142 270.83 128 263 122.55 273c-4.27 7.83.52 16.63-3.52 24.37-5 9.62-16.46 7.41-25 6.18a68 68 0 0 0 6.16 5.87c4.11 3.18 9.26 5.75 14.59 4.8 4.58-.91 7.68-3.21 11-6.36s4.79-7.39 9.63-8.82a16 16 0 0 1 11.4 1.22c7.52 3.72 14.24 11.92 13.64 20.66-.31 4.57-3.75 8.16-7.29 10.72-2 1.48-6.08 2.87-11.3 3.52 6.73 9.34 16.84 9 28.68 8 9.41-.8 19.79-6.61 29.33-4.33 10.61 2.53 7.21 13.42.77 18.64-7.52 6.1-17.64 7.09-27 6.31a116.57 116.57 0 0 0 21 8.41c51.24 14.48 75.71-30.14 74.83-74.75-.76-38.76-20.66-77.53-58.75-77.53" fill="none"/></clipPath></defs><title>logo_cc_160820_rgb</title><path d="M280.5 104.75c-3.11-3.05-3.46-8.26-3.46-14.35s.36-11.2 3.46-14.26a9.37 9.37 0 0 1 6.94-2.6 9.62 9.62 0 0 1 7 2.6c3.12 3.06 3.48 8.14 3.48 14.26s-.35 11.3-3.48 14.35a9.57 9.57 0 0 1-7 2.62 9.33 9.33 0 0 1-6.94-2.62m-11.66-37.22C263.42 73.05 262 79.76 262 90.4s1.38 17.43 6.81 23c3.7 3.84 9.71 7.24 18.61 7.24s15-3.4 18.71-7.24c5.43-5.54 6.81-12.23 6.81-23s-1.38-17.32-6.81-22.87c-3.7-3.84-9.82-7.21-18.71-7.21s-14.9 3.37-18.61 7.21m66.3-1.12v-5.44h-14.66v58.95h15V84.28c0-8 5.32-10.75 10-10.75s9.94 2.71 9.94 10.75v35.63h15V82.25c0-6.46-1.27-12-6.13-16.73-3.35-3.29-8.19-5.2-14.21-5.2a20.75 20.75 0 0 0-15 6.1m90.17 35.29c0-4.17 3-6.65 8.43-6.65h11.89v3.15c0 3.64-.57 6-2.18 7.47-2.65 2.5-5.32 2.83-9.46 2.83-5.91 0-8.67-2.72-8.67-6.79m-12-33.26l9.59 9.17c3.13-3.51 5.77-4.88 11.56-4.88 8 0 11.19 2.85 11.19 9.29v3h-14.2c-14 0-20.55 7.68-20.55 17.07a18.69 18.69 0 0 0 5 13.24c3.57 3.53 8.56 5.21 15.36 5.21s10.75-1.68 14.79-5.65v5.08h14.68v-38.8c0-13.81-8.78-20.8-25.65-20.8-10 0-15.82 1.79-21.72 8.12M486 104.75c-3.13-3.05-3.49-8.26-3.49-14.35s.36-11.2 3.49-14.26a9.3 9.3 0 0 1 6.92-2.6 9.64 9.64 0 0 1 7.05 2.6c3.11 3.06 3.45 8.14 3.45 14.26s-.34 11.3-3.45 14.35a9.59 9.59 0 0 1-7.05 2.62 9.26 9.26 0 0 1-6.92-2.62m-11.68-37.22c-5.44 5.55-6.81 12.23-6.81 22.87s1.37 17.43 6.81 23c3.69 3.84 9.71 7.24 18.61 7.24s15-3.4 18.72-7.24c5.43-5.54 6.8-12.23 6.8-23s-1.45-17.35-6.83-22.87c-3.69-3.84-9.83-7.21-18.72-7.21s-14.91 3.37-18.61 7.21m-92.86-22.27v17.42h-6.34v11.2h6.34v29.17c0 8.39 5.21 16.86 17.45 16.86h8.2v-12.43h-5.41c-3.58 0-5.21-1.93-5.21-5.32V73.88h10.62v-11.2h-10.62V42.05s-8.76 3.23-15 3.23m-176.59 2.25c-8.31 8.16-8.09 18.23-8.09 32.14s-.22 24 8.09 32.12A30.59 30.59 0 0 0 227 120.6c15.25 0 27.38-8.6 30.27-25.46H241c-1.61 6.45-5.77 11.42-13.86 11.42a13.44 13.44 0 0 1-10.28-4.17c-3.12-3.42-4.05-7.25-4.05-22.75s.93-19.33 4.05-22.76a13.44 13.44 0 0 1 10.28-4.16c8.08 0 12.24 5 13.86 11.41h16.3c-2.89-16.85-14.91-25.45-30.27-25.45a30.64 30.64 0 0 0-22.19 8.82" fill="#f47c00"/><path d="M560.34 118.46a25.65 25.65 0 0 1-10.2 1.86 26.5 26.5 0 0 1-10.68-2 21.9 21.9 0 0 1-8-5.88 26.21 26.21 0 0 1-5-9.36 44.76 44.76 0 0 1 0-24.72 26.26 26.26 0 0 1 5-9.36 22 22 0 0 1 8-5.88 26.5 26.5 0 0 1 10.68-2 25.69 25.69 0 0 1 10.2 1.86 26.36 26.36 0 0 1 8.88 7l-4.2 3.84a24.84 24.84 0 0 0-7-5.7 17.67 17.67 0 0 0-7.86-1.62q-10.2 0-15.36 7.68a20.27 20.27 0 0 0-3.06 6.9 52.27 52.27 0 0 0 0 19.32 20.26 20.26 0 0 0 3.06 6.9q5.16 7.68 15.36 7.68a17.67 17.67 0 0 0 7.86-1.62 24.8 24.8 0 0 0 7-5.7l4.2 3.84a26.31 26.31 0 0 1-8.88 7m51.36 1.14h6.12V80.05q0-9.12-5.4-14t-17-4.92a33 33 0 0 0-11.94 1.86 19.29 19.29 0 0 0-8.46 7l4.44 3.84a16.33 16.33 0 0 1 6.3-5.64 22.89 22.89 0 0 1 9.66-1.68q9 0 12.66 3.6t3.66 10.56v6.38H593q-9.48 0-14.82 4.38t-5.34 12.3a18.28 18.28 0 0 0 1.06 6.32 13.42 13.42 0 0 0 3.12 5 15.28 15.28 0 0 0 6.66 4.08 36.41 36.41 0 0 0 10.38 1.2 30.61 30.61 0 0 0 10-1.38 20.73 20.73 0 0 0 7.62-5.1zm0-27.6v7.44q0 8-3.24 11a13.49 13.49 0 0 1-6.78 3.72 39.38 39.38 0 0 1-7.62.72q-7.92 0-11.52-2.76t-3.6-8.52Q578.94 92 593.7 92zm96.72 27.6h6.12v-37q0-10.32-6-16.08a19.29 19.29 0 0 0-6.62-4.08 24.63 24.63 0 0 0-8.66-1.44 23.78 23.78 0 0 0-11.49 2.7 22.09 22.09 0 0 0-8.24 7.86 18.49 18.49 0 0 0-7.38-7.86 22.28 22.28 0 0 0-11.25-2.69q-10.68 0-17.16 7.56v-6.84h-6.12v57.84h6.12V83.72q0-8.28 4.2-12.78t12.12-4.5q7.92 0 11.94 4.44t4 12.84v35.88h6.12v-37q0-7.56 4.38-11.88t11.94-4.32q7.92 0 11.94 4.44t4 12.84zm64.44-28.92a61.31 61.31 0 0 0-1.5-13.5 22.25 22.25 0 0 0-5.94-11.1 16.52 16.52 0 0 0-5.94-3.66 23.18 23.18 0 0 0-8.22-1.38 25.87 25.87 0 0 0-9.18 1.56q-4.14 1.56-8 6.6V61.8H728v85.44h6.12v-35q3.84 5 8 6.6a25.89 25.89 0 0 0 9.18 1.56 23.21 23.21 0 0 0 8.22-1.38 16.47 16.47 0 0 0 5.94-3.66 22.24 22.24 0 0 0 5.94-11.1 61.32 61.32 0 0 0 1.5-13.5m-6.12 0a71.64 71.64 0 0 1-.54 8.88 23.33 23.33 0 0 1-2.28 7.74 14.09 14.09 0 0 1-5 5.52 18.34 18.34 0 0 1-17 0 14.07 14.07 0 0 1-5-5.52 23.29 23.29 0 0 1-2.28-7.74 72.78 72.78 0 0 1 0-17.7 23.38 23.38 0 0 1 2.28-7.8 14.08 14.08 0 0 1 5-5.52 18.34 18.34 0 0 1 17 0 14.1 14.1 0 0 1 5 5.52 23.42 23.42 0 0 1 2.28 7.8 72.18 72.18 0 0 1 .54 8.82" fill="#a3a3a3"/><path d="M116.63 2.05a63.3 63.3 0 0 0-13.12 1.43 69 69 0 0 1 12.55 6.56c4 2.51 8.47 5.56 6.95 9.25-5 8.75-17.19 4.72-24.11 1.52-7.76-3.59-16.5-9.13-25.42-7.6s-14 12.18-16.68 20c9.79-2.8 24.28-4.58 30 6.14 4.28 8 3.9 23.31-5.74 27.33-10.63 4.43-18.44-5.25-26.28-9.78C48 52.88 34 45.05 28.55 55.05c-4.27 7.83.52 16.63-3.52 24.37-5 9.62-16.46 7.41-25 6.18a68 68 0 0 0 6.16 5.87c4.11 3.18 9.26 5.75 14.59 4.8 4.58-.91 7.68-3.21 11-6.36s4.79-7.39 9.63-8.82a16 16 0 0 1 11.4 1.22c7.52 3.72 14.24 11.92 13.64 20.66-.31 4.57-3.75 8.16-7.29 10.72-2 1.48-6.08 2.87-11.3 3.52 6.73 9.34 16.84 9 28.68 8 9.41-.8 19.79-6.61 29.33-4.33 10.61 2.53 7.21 13.42.77 18.64-7.52 6.1-17.64 7.09-27 6.31a116.57 116.57 0 0 0 21 8.41c51.24 14.48 75.71-30.14 74.83-74.75-.76-38.76-20.66-77.53-58.75-77.53" fill="#f47c00"/><g clip-path="url(#a)"><path d="M75.14 5.96c17.22-8 44.38-10.58 67.24 9.25 6.31 5.47 10.85 13.6 14.59 23.14l-37.79 8c-4.14-8-10.44-14.64-22.75-12-6.79 1.44-11.3 5.29-13.29 9.49-2.45 5.18-3.66 11 2.21 38.58s9.33 32.41 13.67 36.14c3.53 3 9.21 4.7 16 3.25 12.32-2.61 15.36-11.25 15.89-20.23l37.79-8c.78 17.12-7.7 37.47-15.83 45.47 0 0-9.55 13.68-42.73 16.65-26 2.31-42.85-16.1-43.21-16.65-11.5-12.67-14.79-30.26-18.72-48.74-4.83-22.72-10-43.81 2.56-63.12 0 0 7.25-13.3 24.38-21.25" fill="#ebebeb"/></g></svg>