<svg xmlns="http://www.w3.org/2000/svg" xmlns:xlink="http://www.w3.org/1999/xlink" viewBox="0 0 772.9 155.1"><path d="M280.5 102.7c-3.1-3.1-3.5-8.3-3.5-14.3 0-6.1.4-11.2 3.5-14.3 1.7-1.7 3.9-2.6 6.9-2.6 3 0 5.3.9 7 2.6 3.1 3.1 3.5 8.1 3.5 14.3 0 6.1-.4 11.3-3.5 14.3-1.7 1.7-4 2.6-7 2.6-3 .1-5.2-.9-6.9-2.6m-11.7-37.2c-5.4 5.6-6.8 12.2-6.8 22.9s1.4 17.4 6.8 23c3.7 3.8 9.7 7.2 18.6 7.2 8.9 0 15-3.4 18.7-7.2 5.4-5.5 6.8-12.2 6.8-23 0-10.6-1.4-17.3-6.8-22.9-3.7-3.8-9.8-7.2-18.7-7.2-8.9 0-14.9 3.4-18.6 7.2m66.3-1.1V59h-14.7v58.9h15V82.3c0-8 5.3-10.7 10-10.7s9.9 2.7 9.9 10.7v35.6h15V80.2c0-6.5-1.3-12-6.1-16.7-3.3-3.3-8.2-5.2-14.2-5.2-5.4 0-10.9 2-14.9 6.1m90.2 35.3c0-4.2 3-6.7 8.4-6.7h11.9v3.2c0 3.6-.6 6-2.2 7.5-2.6 2.5-5.3 2.8-9.5 2.8-5.8 0-8.6-2.7-8.6-6.8m-12-33.3l9.6 9.2c3.1-3.5 5.8-4.9 11.6-4.9 8 0 11.2 2.9 11.2 9.3v3h-14.2c-14 0-20.6 7.7-20.6 17.1 0 5.2 1.7 10 5 13.2 3.6 3.5 8.6 5.2 15.4 5.2 6.9 0 10.8-1.7 14.8-5.7v5.1h14.7V79.1c0-13.8-8.8-20.8-25.6-20.8-10.2 0-16 1.8-21.9 8.1m72.7 36.3c-3.1-3.1-3.5-8.3-3.5-14.3 0-6.1.4-11.2 3.5-14.3 1.7-1.7 3.9-2.6 6.9-2.6 3 0 5.3.9 7.1 2.6 3.1 3.1 3.4 8.1 3.4 14.3 0 6.1-.3 11.3-3.4 14.3-1.7 1.7-4.1 2.6-7.1 2.6-3 .1-5.2-.9-6.9-2.6m-11.7-37.2c-5.4 5.6-6.8 12.2-6.8 22.9s1.4 17.4 6.8 23c3.7 3.8 9.7 7.2 18.6 7.2 8.9 0 15-3.4 18.7-7.2 5.4-5.5 6.8-12.2 6.8-23 0-10.6-1.4-17.3-6.8-22.9-3.7-3.8-9.8-7.2-18.7-7.2-8.9 0-14.9 3.4-18.6 7.2m-92.9-22.3v17.4h-6.3v11.2h6.3V101c0 8.4 5.2 16.9 17.5 16.9h8.2v-12.4h-5.4c-3.6 0-5.2-1.9-5.2-5.3V71.9h10.6V60.7h-10.6V40s-8.8 3.2-15.1 3.2m-176.6 2.3c-8.3 8.2-8.1 18.2-8.1 32.1 0 13.9-.2 24 8.1 32.1 5.8 5.7 13.2 8.8 22.2 8.8 15.2 0 27.4-8.6 30.3-25.5H241c-1.6 6.5-5.8 11.4-13.9 11.4-4.4 0-8-1.6-10.3-4.2-3.1-3.4-4.1-7.2-4.1-22.7s.9-19.3 4.1-22.8c2.3-2.6 5.9-4.2 10.3-4.2 8.1 0 12.2 5 13.9 11.4h16.3C254.4 45 242.4 36.5 227 36.5c-9 .2-16.4 3.4-22.2 9" fill="#ec7404"/><path d="M560.3 116.5c-2.9 1.2-6.3 1.9-10.2 1.9-4 0-7.6-.7-10.7-2-3.1-1.4-5.8-3.3-8-5.9-2.2-2.6-3.9-5.7-5-9.4-1.2-3.7-1.7-7.8-1.7-12.4 0-4.6.6-8.7 1.7-12.4 1.2-3.7 2.8-6.8 5-9.4 2.2-2.6 4.9-4.5 8-5.9 3.1-1.4 6.7-2 10.7-2 3.9 0 7.3.6 10.2 1.9 2.9 1.2 5.8 3.6 8.9 7l-4.2 3.8c-2.5-2.7-4.8-4.6-7-5.7-2.2-1.1-4.8-1.6-7.9-1.6-6.8 0-11.9 2.6-15.4 7.7-1.4 2.1-2.5 4.4-3.1 6.9-.6 2.5-.9 5.7-.9 9.7 0 3.9.3 7.1.9 9.7.6 2.5 1.6 4.8 3.1 6.9 3.4 5.1 8.6 7.7 15.4 7.7 3 0 5.7-.5 7.9-1.6s4.5-3 7-5.7l4.2 3.8c-3 3.4-6 5.7-8.9 7m51.4 1.1h6.1V78c0-6.1-1.8-10.8-5.4-14-3.6-3.3-9.3-4.9-17-4.9-4.8 0-8.8.6-11.9 1.9-3.2 1.2-6 3.6-8.5 7l4.4 3.8c1.8-2.6 3.9-4.5 6.3-5.6 2.4-1.1 5.6-1.7 9.7-1.7 6 0 10.2 1.2 12.7 3.6 2.4 2.4 3.7 5.9 3.7 10.6v6.5H593c-6.3 0-11.3 1.5-14.8 4.4-3.6 2.9-5.3 7-5.3 12.3 0 2.2.4 4.2 1.1 6.2.7 2 1.8 3.7 3.1 5 1.8 1.9 4.1 3.3 6.7 4.1 2.6.8 6.1 1.2 10.4 1.2 4.1 0 7.4-.5 10-1.4 2.6-.9 5.1-2.6 7.6-5.1v5.7zm0-27.6v7.4c0 5.4-1.1 9-3.2 11s-4.3 3.2-6.8 3.7c-2.4.5-5 .7-7.6.7-5.3 0-9.1-.9-11.5-2.8-2.4-1.8-3.6-4.7-3.6-8.5 0-7.8 4.9-11.6 14.8-11.6h17.9zm96.7 27.6h6.1v-37c0-6.9-2-12.2-6-16.1-1.8-1.8-4.1-3.1-6.6-4.1-2.6-1-5.5-1.4-8.7-1.4-4.3 0-8.2.9-11.5 2.7-3.3 1.8-6.1 4.4-8.2 7.9-1.8-3.4-4.2-6.1-7.4-7.9-3.2-1.8-6.9-2.7-11.2-2.7-7.1 0-12.8 2.5-17.2 7.6v-6.8h-6.1v57.8h6.1V81.7c0-5.5 1.4-9.8 4.2-12.8 2.8-3 6.8-4.5 12.1-4.5s9.3 1.5 11.9 4.4c2.7 3 4 7.2 4 12.8v35.9h6.1v-37c0-5 1.5-9 4.4-11.9 2.9-2.9 6.9-4.3 11.9-4.3 5.3 0 9.3 1.5 11.9 4.4 2.7 3 4 7.2 4 12.8v36.1zm64.5-28.9c0-4.6-.5-9.1-1.5-13.5s-3-8.1-5.9-11.1c-1.5-1.5-3.5-2.7-5.9-3.7-2.4-.9-5.2-1.4-8.2-1.4-3.4 0-6.4.5-9.2 1.6-2.8 1-5.4 3.2-8 6.6v-7.4H728v85.4h6.1v-35c2.6 3.4 5.2 5.6 8 6.6s5.8 1.6 9.2 1.6c3 0 5.8-.5 8.2-1.4 2.4-.9 4.4-2.1 5.9-3.7 3-3 4.9-6.7 5.9-11.1 1.1-4.5 1.6-9 1.6-13.5m-6.2 0c0 3-.2 6-.5 8.9-.4 2.9-1.1 5.5-2.3 7.7-1.2 2.3-2.8 4.1-5 5.5-2.2 1.4-5 2.1-8.5 2.1s-6.4-.7-8.5-2.1c-2.2-1.4-3.8-3.2-5-5.5-1.2-2.3-1.9-4.9-2.3-7.7-.4-2.9-.5-5.8-.5-8.9 0-3 .2-5.9.5-8.8.4-2.9 1.1-5.5 2.3-7.8 1.2-2.3 2.8-4.1 5-5.5 2.2-1.4 5-2.1 8.5-2.1s6.4.7 8.5 2.1c2.2 1.4 3.8 3.2 5 5.5 1.2 2.3 1.9 4.9 2.3 7.8.4 2.9.5 5.8.5 8.8" fill="#a6a6a6"/><linearGradient id="a" gradientUnits="userSpaceOnUse" x1="87.707" y1="155.059" x2="87.707"><stop offset="0" stop-color="#ec7404"/><stop offset=".283" stop-color="#ec7006"/><stop offset=".577" stop-color="#ea640a"/><stop offset=".874" stop-color="#e74f11"/><stop offset="1" stop-color="#e64415"/></linearGradient><path d="M116.6 0c-4.2 0-8.5.5-13.1 1.4 4.4 1.6 8.6 4 12.5 6.6 4 2.5 8.5 5.6 6.9 9.3-5 8.8-17.2 4.7-24.1 1.5-7.8-3.6-16.5-9.1-25.4-7.6-9 1.5-14 12.2-16.7 20 9.8-2.8 24.3-4.6 30 6.1 4.3 8 3.9 23.3-5.7 27.3-10.6 4.4-18.4-5.2-26.3-9.8C48 50.9 34 43 28.5 53.1c-4.3 7.8.5 16.6-3.5 24.4-5 9.5-16.4 7.3-25 6.1 2 2 3.9 4.1 6.2 5.9 4.1 3.2 9.3 5.7 14.6 4.8 4.6-.9 7.7-3.2 11-6.4 3.4-3.2 4.8-7.4 9.6-8.8 3.8-1.1 7.9-.5 11.4 1.2C60.3 84 67 92.2 66.4 101c-.3 4.6-3.7 8.2-7.3 10.7-2 1.5-6.1 2.9-11.3 3.5 6.7 9.3 16.8 9 28.7 8 9.4-.8 19.8-6.6 29.3-4.3 10.6 2.5 7.2 13.4.8 18.6-7.5 6.1-17.6 7.1-27 6.3 6.7 3.4 13.7 6.4 21 8.4 51.2 14.5 75.7-30.1 74.8-74.8C174.6 38.8 154.7 0 116.6 0" fill="url(#a)"/><defs><path id="b" d="M116.6 0c-4.2 0-8.5.5-13.1 1.4 4.4 1.6 8.6 4 12.5 6.6 4 2.5 8.5 5.6 6.9 9.3-5 8.8-17.2 4.7-24.1 1.5-7.8-3.6-16.5-9.1-25.4-7.6-9 1.5-14 12.2-16.7 20 9.8-2.8 24.3-4.6 30 6.1 4.3 8 3.9 23.3-5.7 27.3-10.6 4.4-18.4-5.2-26.3-9.8C48 50.9 34 43 28.5 53.1c-4.3 7.8.5 16.6-3.5 24.4-5 9.5-16.4 7.3-25 6.1 2 2 3.9 4.1 6.2 5.9 4.1 3.2 9.3 5.7 14.6 4.8 4.6-.9 7.7-3.2 11-6.4 3.4-3.2 4.8-7.4 9.6-8.8 3.8-1.1 7.9-.5 11.4 1.2C60.3 84 67 92.2 66.4 101c-.3 4.6-3.7 8.2-7.3 10.7-2 1.5-6.1 2.9-11.3 3.5 6.7 9.3 16.8 9 28.7 8 9.4-.8 19.8-6.6 29.3-4.3 10.6 2.5 7.2 13.4.8 18.6-7.5 6.1-17.6 7.1-27 6.3 6.7 3.4 13.7 6.4 21 8.4 51.2 14.5 75.7-30.1 74.8-74.8C174.6 38.8 154.7 0 116.6 0"/></defs><clipPath id="c"><use xlink:href="#b" overflow="visible"/></clipPath><path d="M213.6 21c0 30.1-53.2 54.6-118.8 54.6C26.5 75.5-24.1 51.1-24.1 21S29.1-33.6 94.7-33.6c65.7 0 118.9 24.4 118.9 54.6" opacity=".25" clip-path="url(#c)" fill="#fff"/><defs><path id="d" d="M116.6 0c-4.2 0-8.5.5-13.1 1.4 4.4 1.6 8.6 4 12.5 6.6 4 2.5 8.5 5.6 6.9 9.3-5 8.8-17.2 4.7-24.1 1.5-7.8-3.6-16.5-9.1-25.4-7.6-9 1.5-14 12.2-16.7 20 9.8-2.8 24.3-4.6 30 6.1 4.3 8 3.9 23.3-5.7 27.3-10.6 4.4-18.4-5.2-26.3-9.8C48 50.9 34 43 28.5 53.1c-4.3 7.8.5 16.6-3.5 24.4-5 9.5-16.4 7.3-25 6.1 2 2 3.9 4.1 6.2 5.9 4.1 3.2 9.3 5.7 14.6 4.8 4.6-.9 7.7-3.2 11-6.4 3.4-3.2 4.8-7.4 9.6-8.8 3.8-1.1 7.9-.5 11.4 1.2C60.3 84 67 92.2 66.4 101c-.3 4.6-3.7 8.2-7.3 10.7-2 1.5-6.1 2.9-11.3 3.5 6.7 9.3 16.8 9 28.7 8 9.4-.8 19.8-6.6 29.3-4.3 10.6 2.5 7.2 13.4.8 18.6-7.5 6.1-17.6 7.1-27 6.3 6.7 3.4 13.7 6.4 21 8.4 51.2 14.5 75.7-30.1 74.8-74.8C174.6 38.8 154.7 0 116.6 0"/></defs><clipPath id="e"><use xlink:href="#d" overflow="visible"/></clipPath><path d="M75.1 3.9c17.2-8 44.4-10.6 67.2 9.2 6.3 5.5 10.9 13.6 14.6 23.1l-37.8 8c-4.1-8-10.4-14.6-22.7-12-6.8 1.4-11.3 5.3-13.3 9.5-2.5 5.2-3.7 11 2.2 38.6s9.3 32.4 13.7 36.1c3.5 3 9.2 4.7 16 3.2 12.3-2.6 15.4-11.2 15.9-20.2l37.8-8c.8 17.2-7.7 37.5-15.8 45.5 0 0-9.6 13.7-42.7 16.6-26 2.3-42.9-16.1-43.2-16.6-11.5-12.7-14.8-30.3-18.7-48.7-4.8-22.7-10-43.8 2.6-63.1-.1.1 7.1-13.2 24.2-21.2" clip-path="url(#e)" fill="#e5e5e5"/></svg>