<?xml version="1.0" encoding="utf-8"?>
<!-- Generator: Adobe Illustrator 19.1.0, SVG Export Plug-In . SVG Version: 6.00 Build 0)  -->
<svg version="1.1" id="Ebene_1" xmlns="http://www.w3.org/2000/svg" xmlns:xlink="http://www.w3.org/1999/xlink" x="0px" y="0px"
	 viewBox="0 0 777.1 158.1" style="enable-background:new 0 0 777.1 158.1;" xml:space="preserve">
<g>
	<path style="fill:#FFFFFF;stroke:#FFFFFF;stroke-width:3;" d="M120.9,1.5c-4.2,0-8.5,0.5-13.1,1.4c4.4,1.6,8.6,4,12.5,6.6
		c4,2.5,8.5,5.6,6.9,9.3c-5,8.8-17.2,4.7-24.1,1.5c-7.8-3.6-16.5-9.1-25.4-7.6c-9,1.5-14,12.2-16.7,20c9.8-2.8,24.3-4.6,30,6.1
		c4.3,8,3.9,23.3-5.7,27.3c-10.6,4.4-18.4-5.2-26.3-9.8c-6.8-3.9-20.8-11.8-26.2-1.8c-4.3,7.8,0.5,16.6-3.5,24.4
		c-5,9.6-16.5,7.4-25,6.2c2,2,3.9,4.1,6.2,5.9c4.1,3.2,9.3,5.7,14.6,4.8c4.6-0.9,7.7-3.2,11-6.4c3.4-3.2,4.8-7.4,9.6-8.8
		c3.8-1.1,7.9-0.5,11.4,1.2c7.5,3.7,14.2,11.9,13.6,20.7c-0.3,4.6-3.7,8.2-7.3,10.7c-2,1.5-6.1,2.9-11.3,3.5c6.7,9.3,16.8,9,28.7,8
		c9.4-0.8,19.8-6.6,29.3-4.3c10.6,2.5,7.2,13.4,0.8,18.6c-7.5,6.1-17.6,7.1-27,6.3c6.7,3.4,13.7,6.4,21,8.4
		c51.2,14.5,75.7-30.1,74.8-74.8C178.9,40.3,159,1.5,120.9,1.5C120.9,1.5,120.9,1.5,120.9,1.5"/>
	<path style="fill:#EC7404;" d="M284.7,104.2c-3.1-3.1-3.5-8.3-3.5-14.3c0-6.1,0.4-11.2,3.5-14.3c1.7-1.7,3.9-2.6,6.9-2.6
		c3,0,5.3,0.9,7,2.6c3.1,3.1,3.5,8.1,3.5,14.3c0,6.1-0.4,11.3-3.5,14.3c-1.7,1.7-4,2.6-7,2.6C288.7,106.9,286.5,105.9,284.7,104.2
		 M273.1,67c-5.4,5.6-6.8,12.2-6.8,22.9c0,10.7,1.4,17.4,6.8,23c3.7,3.8,9.7,7.2,18.6,7.2c8.9,0,15-3.4,18.7-7.2
		c5.4-5.5,6.8-12.2,6.8-23c0-10.6-1.4-17.3-6.8-22.9c-3.7-3.8-9.8-7.2-18.7-7.2C282.8,59.8,276.8,63.2,273.1,67 M339.4,65.9v-5.4
		h-14.7v58.9h15V83.8c0-8,5.3-10.7,10-10.7c4.7,0,9.9,2.7,9.9,10.7v35.6h15V81.7c0-6.5-1.3-12-6.1-16.7c-3.3-3.3-8.2-5.2-14.2-5.2
		C348.9,59.8,343.3,61.8,339.4,65.9 M429.6,101.2c0-4.2,3-6.7,8.4-6.7h11.9v3.2c0,3.6-0.6,6-2.2,7.5c-2.6,2.5-5.3,2.8-9.5,2.8
		C432.3,108,429.6,105.3,429.6,101.2 M417.5,67.9l9.6,9.2c3.1-3.5,5.8-4.9,11.6-4.9c8,0,11.2,2.9,11.2,9.3v3h-14.2
		c-14,0-20.6,7.7-20.6,17.1c0,5.2,1.7,10,5,13.2c3.6,3.5,8.6,5.2,15.4,5.2c6.9,0,10.8-1.7,14.8-5.7v5.1h14.7V80.6
		c0-13.8-8.8-20.8-25.6-20.8C429.2,59.8,423.4,61.6,417.5,67.9 M490.2,104.2c-3.1-3.1-3.5-8.3-3.5-14.3c0-6.1,0.4-11.2,3.5-14.3
		c1.7-1.7,3.9-2.6,6.9-2.6c3,0,5.3,0.9,7.1,2.6c3.1,3.1,3.4,8.1,3.4,14.3c0,6.1-0.3,11.3-3.4,14.3c-1.7,1.7-4.1,2.6-7.1,2.6
		C494.1,106.9,491.9,105.9,490.2,104.2 M478.5,67c-5.4,5.6-6.8,12.2-6.8,22.9c0,10.7,1.4,17.4,6.8,23c3.7,3.8,9.7,7.2,18.6,7.2
		c8.9,0,15-3.4,18.7-7.2c5.4-5.5,6.8-12.2,6.8-23c0-10.6-1.4-17.3-6.8-22.9c-3.7-3.8-9.8-7.2-18.7-7.2
		C488.2,59.8,482.2,63.2,478.5,67 M385.7,44.7v17.4h-6.3v11.2h6.3v29.2c0,8.4,5.2,16.9,17.5,16.9h8.2V107h-5.4
		c-3.6,0-5.2-1.9-5.2-5.3V73.4h10.6V62.2h-10.6V41.5C400.7,41.5,391.9,44.7,385.7,44.7 M209.1,47c-8.3,8.2-8.1,18.2-8.1,32.1
		c0,13.9-0.2,24,8.1,32.1c5.8,5.7,13.2,8.8,22.2,8.8c15.2,0,27.4-8.6,30.3-25.5h-16.3c-1.6,6.5-5.8,11.4-13.9,11.4
		c-4.4,0-8-1.6-10.3-4.2c-3.1-3.4-4.1-7.2-4.1-22.7c0-15.5,0.9-19.3,4.1-22.8c2.3-2.6,5.9-4.2,10.3-4.2c8.1,0,12.2,5,13.9,11.4h16.3
		c-2.9-16.9-14.9-25.4-30.3-25.4C222.3,38.2,214.8,41.4,209.1,47"/>
	<path style="fill:#A6A6A6;" d="M564.6,118c-2.9,1.2-6.3,1.9-10.2,1.9c-4,0-7.6-0.7-10.7-2c-3.1-1.4-5.8-3.3-8-5.9
		c-2.2-2.6-3.9-5.7-5-9.4c-1.2-3.7-1.7-7.8-1.7-12.4c0-4.6,0.6-8.7,1.7-12.4c1.2-3.7,2.8-6.8,5-9.4c2.2-2.6,4.9-4.5,8-5.9
		c3.1-1.4,6.7-2,10.7-2c3.9,0,7.3,0.6,10.2,1.9c2.9,1.2,5.8,3.6,8.9,7l-4.2,3.8c-2.5-2.7-4.8-4.6-7-5.7c-2.2-1.1-4.8-1.6-7.9-1.6
		c-6.8,0-11.9,2.6-15.4,7.7c-1.4,2.1-2.5,4.4-3.1,6.9c-0.6,2.5-0.9,5.7-0.9,9.7c0,3.9,0.3,7.1,0.9,9.7c0.6,2.5,1.6,4.8,3.1,6.9
		c3.4,5.1,8.6,7.7,15.4,7.7c3,0,5.7-0.5,7.9-1.6c2.2-1.1,4.5-3,7-5.7l4.2,3.8C570.4,114.4,567.5,116.7,564.6,118 M615.9,119.1h6.1
		V79.5c0-6.1-1.8-10.8-5.4-14c-3.6-3.3-9.3-4.9-17-4.9c-4.8,0-8.8,0.6-11.9,1.9c-3.2,1.2-6,3.6-8.5,7l4.4,3.8
		c1.8-2.6,3.9-4.5,6.3-5.6c2.4-1.1,5.6-1.7,9.7-1.7c6,0,10.2,1.2,12.7,3.6c2.4,2.4,3.7,5.9,3.7,10.6v6.5h-18.7
		c-6.3,0-11.3,1.5-14.8,4.4c-3.6,2.9-5.3,7-5.3,12.3c0,2.2,0.4,4.2,1.1,6.2c0.7,2,1.8,3.7,3.1,5c1.8,1.9,4.1,3.3,6.7,4.1
		c2.6,0.8,6.1,1.2,10.4,1.2c4.1,0,7.4-0.5,10-1.4c2.6-0.9,5.1-2.6,7.6-5.1V119.1z M615.9,91.5v7.4c0,5.4-1.1,9-3.2,11
		c-2.1,2-4.3,3.2-6.8,3.7c-2.4,0.5-5,0.7-7.6,0.7c-5.3,0-9.1-0.9-11.5-2.8c-2.4-1.8-3.6-4.7-3.6-8.5c0-7.8,4.9-11.6,14.8-11.6H615.9
		z M712.7,119.1h6.1v-37c0-6.9-2-12.2-6-16.1c-1.8-1.8-4.1-3.1-6.6-4.1c-2.6-1-5.5-1.4-8.7-1.4c-4.3,0-8.2,0.9-11.5,2.7
		c-3.3,1.8-6.1,4.4-8.2,7.9c-1.8-3.4-4.2-6.1-7.4-7.9c-3.2-1.8-6.9-2.7-11.2-2.7c-7.1,0-12.8,2.5-17.2,7.6l0-6.8h-6.1v57.8h6.1V83.2
		c0-5.5,1.4-9.8,4.2-12.8c2.8-3,6.8-4.5,12.1-4.5c5.3,0,9.3,1.5,11.9,4.4c2.7,3,4,7.2,4,12.8v35.9h6.1v-37c0-5,1.5-9,4.4-11.9
		c2.9-2.9,6.9-4.3,11.9-4.3c5.3,0,9.3,1.5,11.9,4.4c2.7,3,4,7.2,4,12.8V119.1z M777.1,90.2c0-4.6-0.5-9.1-1.5-13.5
		c-1-4.4-3-8.1-5.9-11.1c-1.5-1.5-3.5-2.7-5.9-3.7c-2.4-0.9-5.2-1.4-8.2-1.4c-3.4,0-6.4,0.5-9.2,1.6c-2.8,1-5.4,3.2-8,6.6v-7.4h-6.1
		v85.4h6.1v-35c2.6,3.4,5.2,5.6,8,6.6c2.8,1,5.8,1.6,9.2,1.6c3,0,5.8-0.5,8.2-1.4c2.4-0.9,4.4-2.1,5.9-3.7c3-3,4.9-6.7,5.9-11.1
		C776.6,99.2,777.1,94.7,777.1,90.2 M771,90.2c0,3-0.2,6-0.5,8.9c-0.4,2.9-1.1,5.5-2.3,7.7c-1.2,2.3-2.8,4.1-5,5.5
		c-2.2,1.4-5,2.1-8.5,2.1c-3.5,0-6.4-0.7-8.5-2.1c-2.2-1.4-3.8-3.2-5-5.5c-1.2-2.3-1.9-4.9-2.3-7.7c-0.4-2.9-0.5-5.8-0.5-8.9
		c0-3,0.2-5.9,0.5-8.8c0.4-2.9,1.1-5.5,2.3-7.8c1.2-2.3,2.8-4.1,5-5.5c2.2-1.4,5-2.1,8.5-2.1c3.5,0,6.4,0.7,8.5,2.1
		c2.2,1.4,3.8,3.2,5,5.5c1.2,2.3,1.9,4.9,2.3,7.8C770.8,84.3,771,87.2,771,90.2"/>
	<linearGradient id="SVGID_1_" gradientUnits="userSpaceOnUse" x1="91.9506" y1="156.5589" x2="91.9506" y2="1.5">
		<stop  offset="0" style="stop-color:#EC7404"/>
		<stop  offset="0.2833" style="stop-color:#EC7006"/>
		<stop  offset="0.5767" style="stop-color:#EA640A"/>
		<stop  offset="0.8738" style="stop-color:#E74F11"/>
		<stop  offset="1" style="stop-color:#E64415"/>
	</linearGradient>
	<path style="fill:url(#SVGID_1_);" d="M120.9,1.5c-4.2,0-8.5,0.5-13.1,1.4c4.4,1.6,8.6,4,12.5,6.6c4,2.5,8.5,5.6,6.9,9.3
		c-5,8.8-17.2,4.7-24.1,1.5c-7.8-3.6-16.5-9.1-25.4-7.6c-9,1.5-14,12.2-16.7,20c9.8-2.8,24.3-4.6,30,6.1c4.3,8,3.9,23.3-5.7,27.3
		c-10.6,4.4-18.4-5.2-26.3-9.8c-6.8-3.9-20.8-11.8-26.2-1.8c-4.3,7.8,0.5,16.6-3.5,24.4c-5,9.6-16.5,7.4-25,6.2c2,2,3.9,4.1,6.2,5.9
		c4.1,3.2,9.3,5.7,14.6,4.8c4.6-0.9,7.7-3.2,11-6.4c3.4-3.2,4.8-7.4,9.6-8.8c3.8-1.1,7.9-0.5,11.4,1.2c7.5,3.7,14.2,11.9,13.6,20.7
		c-0.3,4.6-3.7,8.2-7.3,10.7c-2,1.5-6.1,2.9-11.3,3.5c6.7,9.3,16.8,9,28.7,8c9.4-0.8,19.8-6.6,29.3-4.3c10.6,2.5,7.2,13.4,0.8,18.6
		c-7.5,6.1-17.6,7.1-27,6.3c6.7,3.4,13.7,6.4,21,8.4c51.2,14.5,75.7-30.1,74.8-74.8C178.9,40.3,159,1.5,120.9,1.5
		C120.9,1.5,120.9,1.5,120.9,1.5"/>
	<g>
		<defs>
			<path id="SVGID_17_" d="M120.9,1.5c-4.2,0-8.5,0.5-13.1,1.4c4.4,1.6,8.6,4,12.5,6.6c4,2.5,8.5,5.6,6.9,9.3
				c-5,8.8-17.2,4.7-24.1,1.5c-7.8-3.6-16.5-9.1-25.4-7.6c-9,1.5-14,12.2-16.7,20c9.8-2.8,24.3-4.6,30,6.1c4.3,8,3.9,23.3-5.7,27.3
				c-10.6,4.4-18.4-5.2-26.3-9.8c-6.8-3.9-20.8-11.8-26.2-1.8c-4.3,7.8,0.5,16.6-3.5,24.4c-5,9.6-16.5,7.4-25,6.2
				c2,2,3.9,4.1,6.2,5.9c4.1,3.2,9.3,5.7,14.6,4.8c4.6-0.9,7.7-3.2,11-6.4c3.4-3.2,4.8-7.4,9.6-8.8c3.8-1.1,7.9-0.5,11.4,1.2
				c7.5,3.7,14.2,11.9,13.6,20.7c-0.3,4.6-3.7,8.2-7.3,10.7c-2,1.5-6.1,2.9-11.3,3.5c6.7,9.3,16.8,9,28.7,8
				c9.4-0.8,19.8-6.6,29.3-4.3c10.6,2.5,7.2,13.4,0.8,18.6c-7.5,6.1-17.6,7.1-27,6.3c6.7,3.4,13.7,6.4,21,8.4
				c51.2,14.5,75.7-30.1,74.8-74.8C178.9,40.3,159,1.5,120.9,1.5C120.9,1.5,120.9,1.5,120.9,1.5"/>
		</defs>
		<clipPath id="SVGID_2_">
			<use xlink:href="#SVGID_17_"  style="overflow:visible;"/>
		</clipPath>
		<path style="opacity:0.25;clip-path:url(#SVGID_2_);fill:#FFFFFF;" d="M217.8,22.5C217.8,52.6,164.6,77,99,77
			C30.7,77-19.8,52.6-19.8,22.5c0-30.1,53.2-54.6,118.8-54.6C164.6-32.1,217.8-7.7,217.8,22.5"/>
	</g>
	<g>
		<defs>
			<path id="SVGID_19_" d="M120.9,1.5c-4.2,0-8.5,0.5-13.1,1.4c4.4,1.6,8.6,4,12.5,6.6c4,2.5,8.5,5.6,6.9,9.3
				c-5,8.8-17.2,4.7-24.1,1.5c-7.8-3.6-16.5-9.1-25.4-7.6c-9,1.5-14,12.2-16.7,20c9.8-2.8,24.3-4.6,30,6.1c4.3,8,3.9,23.3-5.7,27.3
				c-10.6,4.4-18.4-5.2-26.3-9.8c-6.8-3.9-20.8-11.8-26.2-1.8c-4.3,7.8,0.5,16.6-3.5,24.4c-5,9.6-16.5,7.4-25,6.2
				c2,2,3.9,4.1,6.2,5.9c4.1,3.2,9.3,5.7,14.6,4.8c4.6-0.9,7.7-3.2,11-6.4c3.4-3.2,4.8-7.4,9.6-8.8c3.8-1.1,7.9-0.5,11.4,1.2
				c7.5,3.7,14.2,11.9,13.6,20.7c-0.3,4.6-3.7,8.2-7.3,10.7c-2,1.5-6.1,2.9-11.3,3.5c6.7,9.3,16.8,9,28.7,8
				c9.4-0.8,19.8-6.6,29.3-4.3c10.6,2.5,7.2,13.4,0.8,18.6c-7.5,6.1-17.6,7.1-27,6.3c6.7,3.4,13.7,6.4,21,8.4
				c51.2,14.5,75.7-30.1,74.8-74.8C178.9,40.3,159,1.5,120.9,1.5C120.9,1.5,120.9,1.5,120.9,1.5"/>
		</defs>
		<clipPath id="SVGID_3_">
			<use xlink:href="#SVGID_19_"  style="overflow:visible;"/>
		</clipPath>
		<path style="clip-path:url(#SVGID_3_);fill:#E5E5E5;" d="M79.4,5.4c17.2-8,44.4-10.6,67.2,9.2c6.3,5.5,10.9,13.6,14.6,23.1
			l-37.8,8c-4.1-8-10.4-14.6-22.7-12c-6.8,1.4-11.3,5.3-13.3,9.5c-2.5,5.2-3.7,11,2.2,38.6c5.9,27.6,9.3,32.4,13.7,36.1
			c3.5,3,9.2,4.7,16,3.2c12.3-2.6,15.4-11.2,15.9-20.2l37.8-8c0.8,17.2-7.7,37.5-15.8,45.5c0,0-9.6,13.7-42.7,16.6
			c-26,2.3-42.9-16.1-43.2-16.6c-11.5-12.7-14.8-30.3-18.7-48.7C47.6,67.1,42.5,46,55,26.7C55,26.7,62.3,13.4,79.4,5.4"/>
	</g>
</g>
<g>
</g>
<g>
</g>
<g>
</g>
<g>
</g>
<g>
</g>
<g>
</g>
</svg>
